<?xml version="1.0" encoding="UTF-8"?>
<svg id="Layer_1" xmlns="http://www.w3.org/2000/svg" viewBox="0 0 344.35 306">
    <defs>
        <style>.cls-1{fill:#00599c;}.cls-2{fill:#fff;}.cls-3{fill:#659ad2;}</style>
    </defs>
    <path class="cls-1"
          d="M0,153c0,4.8,1.05,9.61,3.16,13.25l73.04,126.5c4.21,7.29,14.53,13.25,22.95,13.25h146.07c8.42,0,18.74-5.96,22.95-13.25l73.03-126.5c2.1-3.64,3.16-8.45,3.16-13.25h-172.17S0,153,0,153Z"/>
    <path class="cls-3"
          d="M344.35,153c0-4.8-1.05-9.61-3.16-13.25L268.16,13.25C263.95,5.96,253.62,0,245.21,0H99.14c-8.42,0-18.74,5.96-22.95,13.25L3.16,139.75C1.05,143.39,0,148.2,0,153h172.17s172.18,0,172.18,0Z"/>
    <path class="cls-2"
          d="M64.83,107.56h19.92c0,3.2,2.89,5.8,7.27,5.8,3.99,0,7.07-2.3,7.07-5.8,0-3.7-3.39-5.9-7.27-5.9-14.45,0-26.9-10.3-26.9-23.1s11.26-23.1,27.1-23.1c14.94,0,27,10.2,27,23h-19.83c0-3.1-3.09-5.8-7.17-5.8s-7.17,2.3-7.17,5.8,2.89,5.9,7.17,5.9c15.24,0,27,10.4,27,23.1s-11.76,23-26.7,23c-16.34,0-27.5-10.7-27.5-22.9Z"/>
    <path class="cls-2"
          d="M166.25,130.46c-20.62,0-37.26-16.7-37.26-37.4s16.64-37.6,37.26-37.6,37.36,16.9,37.36,37.6-16.74,37.4-37.36,37.4ZM166.25,75.05c-9.76,0-17.73,8-17.73,17.9s7.97,17.9,17.73,17.9,17.83-8.1,17.83-17.9-7.97-17.9-17.83-17.9Z"/>
    <path class="cls-2"
          d="M216.06,100.86v-45.4h19.73v45.1c0,5.4,4.38,9.8,9.76,9.8s9.76-4.4,9.76-9.8v-45.1h19.73v45.4c0,16.5-13.25,29.6-29.49,29.6s-29.49-13.1-29.49-29.6Z"/>
    <path class="cls-2"
          d="M72.01,175.45h27.7c20.62,0,37.36,16.8,37.36,37.5s-16.74,37.5-37.36,37.5h-27.7v-75ZM99.8,231.06c9.76,0,17.73-8,17.73-17.8s-7.97-17.7-17.73-17.7h-8.27v35.5h8.27Z"/>
    <path class="cls-2" d="M150.51,175.45h46.42v16.3h-26.8v12.2h23.71v16.6h-23.71v13.8h26.8v16.1h-46.42v-75Z"/>
    <path class="cls-2"
          d="M211.87,175.45h31.48c15.14,0,27.5,12.4,27.5,27.6,0,8-3.49,15.2-8.87,20.2l15.84,27.2h-22.61l-11.56-19.9h-12.15v19.9h-19.63v-75ZM243.65,213.55c5.98,0,10.76-4.7,10.76-10.7s-4.78-10.8-10.76-10.8h-12.15v21.5h12.15Z"/>
</svg>